<svg width="70" height="75" viewBox="0 0 70 75" fill="none" xmlns="http://www.w3.org/2000/svg">
<path d="M0.00621297 0.0132157C0.00621297 0.303961 -0.00776621 0.502197 0.00621297 0.700433C0.537422 6.19817 1.06863 11.6959 1.58586 17.2069C2.31278 25.0041 3.02572 32.8014 3.75263 40.5855C4.57741 49.3343 5.41616 58.0699 6.21297 66.8187C6.26889 67.453 6.50653 67.7305 7.1356 67.8891C16.0823 70.2151 25.001 72.5543 33.9477 74.867C34.5488 75.0256 35.2757 75.052 35.8768 74.8934C44.8514 72.5675 53.8121 70.2019 62.7867 67.8627C63.4717 67.6777 63.7094 67.3869 63.7653 66.7261C64.0449 63.4222 64.3804 60.1051 64.6879 56.8011C65.2051 51.3298 65.7084 45.8585 66.2256 40.3872C66.8267 33.9644 67.4418 27.5548 68.0429 21.1319C68.4902 16.3478 68.9655 11.577 69.4129 6.79288C69.6226 4.54621 69.8043 2.29953 70 0H0.00621297V0.0132157ZM56.4961 19.0967C56.0348 23.9337 55.5735 28.7838 55.1122 33.6208C54.581 39.1846 54.0497 44.7484 53.5185 50.299C53.3648 51.8981 53.1411 53.4972 53.0992 55.1095C53.0712 55.9686 52.6798 56.1932 51.9249 56.3915C46.5289 57.7659 41.147 59.18 35.765 60.5808C35.5273 60.6469 35.3037 60.7262 35.066 60.7923C34.9821 60.7526 34.8983 60.7262 34.8004 60.6866C29.041 59.2064 23.2816 57.713 17.5221 56.2064C17.2845 56.1404 16.9769 55.7835 16.949 55.5324C16.5436 51.4091 16.1801 47.2858 15.7887 43.0832H24.5816C24.7354 44.7352 24.9031 46.4136 25.0429 48.1052C25.1687 49.6647 25.1548 49.6647 26.7065 50.0611C29.4883 50.7616 32.2842 51.4488 35.066 52.136L35.0381 52.0699C38.0855 51.3034 41.133 50.5501 44.1804 49.7307C44.46 49.6514 44.7815 49.2285 44.8235 48.9378C45.0052 47.6691 45.1031 46.3872 45.2149 45.1184C45.3966 43.07 45.5784 41.0216 45.7741 38.8806H35.0381L35.066 38.8278C34.9961 38.8278 34.9122 38.8278 34.8423 38.8278H15.3833C15.1177 36.0921 14.8661 33.3829 14.6005 30.5944H34.8563C34.9262 30.5944 35.0101 30.5944 35.08 30.5944L35.052 30.5415H46.5569C46.8225 27.7001 47.0881 24.9248 47.3537 22.0967H35.0381L35.066 22.0438C34.9961 22.0438 34.9122 22.0438 34.8423 22.0438C27.9506 22.057 21.0589 22.057 14.1671 22.0702C14.0693 22.0702 13.9714 22.0306 13.7897 21.9777C13.5381 19.2817 13.2725 16.5857 13.0208 13.8104H34.8423C34.9122 13.8104 34.9961 13.8104 35.066 13.8104L35.0381 13.7576H56.9574C56.8036 15.6078 56.6499 17.3522 56.4961 19.0967Z" fill="white"/>
</svg>
