<svg width="70" height="75" viewBox="0 0 70 75" fill="none" xmlns="http://www.w3.org/2000/svg">
<path d="M68.696 34.1966L38.0883 1.40701C36.3371 -0.469005 33.4438 -0.469005 31.6927 1.40701L25.3732 8.177L33.4438 16.823C35.3473 16.1705 37.4792 16.5783 38.9258 18.2096C40.4486 19.8409 40.8293 22.1248 40.2202 24.1639L47.9863 32.4837C49.8898 31.8312 52.0216 32.239 53.5444 33.8703C55.6763 36.0726 55.6763 39.7431 53.5444 42.0269C51.4125 44.3108 48.0624 44.3108 45.9306 42.0269C44.3317 40.314 43.951 37.867 44.7885 35.7463L37.5553 27.9976V48.3891C38.0883 48.6338 38.5451 49.0416 39.002 49.4494C41.1338 51.6517 41.1338 55.3222 39.002 57.606C36.8701 59.8083 33.52 59.8083 31.3881 57.606C29.2562 55.3222 29.2562 51.7333 31.3881 49.4494C31.9211 48.8785 32.5302 48.4706 33.1393 48.2259V27.5897C32.5302 27.345 31.9211 26.8556 31.3881 26.3662C29.7892 24.6533 29.4085 22.2064 30.246 20.0856L22.2515 11.6028L1.31339 34.0334C-0.437796 35.9095 -0.437796 39.009 1.31339 40.885L31.8449 73.593C33.5961 75.469 36.4894 75.469 38.2406 73.593L68.6198 41.0481C70.4472 39.0905 70.4472 36.0726 68.696 34.1966Z" fill="white"/>
</svg>
